<svg width="40" height="40" viewBox="0 0 40 40" fill="none" xmlns="http://www.w3.org/2000/svg" xmlns:xlink="http://www.w3.org/1999/xlink">
<path d="M20.002,14C18.411,14 16.885,14.632 15.759,15.757C14.634,16.883 14.002,18.409 14.002,20C14.002,21.591 14.634,23.117 15.759,24.243C16.885,25.368 18.411,26 20.002,26C21.593,26 23.119,25.368 24.245,24.243C25.37,23.117 26.002,21.591 26.002,20C26.002,18.409 25.37,16.883 24.245,15.757C23.119,14.632 21.593,14 20.002,14ZM20.002,10C22.654,10 25.198,11.054 27.073,12.929C28.948,14.804 30.002,17.348 30.002,20C30.002,22.652 28.948,25.196 27.073,27.071C25.198,28.946 22.654,30 20.002,30C17.35,30 14.806,28.946 12.931,27.071C11.056,25.196 10.002,22.652 10.002,20C10.002,17.348 11.056,14.804 12.931,12.929C14.806,11.054 17.35,10 20.002,10ZM33.002,9.5C33.002,10.163 32.739,10.799 32.27,11.268C31.801,11.737 31.165,12 30.502,12C29.839,12 29.203,11.737 28.734,11.268C28.265,10.799 28.002,10.163 28.002,9.5C28.002,8.837 28.265,8.201 28.734,7.732C29.203,7.263 29.839,7 30.502,7C31.165,7 31.801,7.263 32.27,7.732C32.739,8.201 33.002,8.837 33.002,9.5ZM20.002,4C15.054,4 14.246,4.014 11.944,4.116C10.376,4.19 9.324,4.4 8.348,4.78C7.531,5.08 6.793,5.561 6.188,6.186C5.562,6.791 5.081,7.529 4.78,8.346C4.4,9.326 4.19,10.376 4.118,11.942C4.014,14.15 4,14.922 4,20C4,24.95 4.014,25.756 4.116,28.058C4.19,29.624 4.4,30.678 4.778,31.652C5.118,32.522 5.518,33.148 6.182,33.812C6.856,34.484 7.482,34.886 8.342,35.218C9.33,35.6 10.382,35.812 11.942,35.884C14.15,35.988 14.922,36 20,36C24.95,36 25.756,35.986 28.058,35.884C29.622,35.81 30.674,35.6 31.652,35.222C32.468,34.921 33.206,34.44 33.812,33.816C34.486,33.144 34.888,32.518 35.22,31.656C35.6,30.672 35.812,29.62 35.884,28.056C35.988,25.85 36,25.076 36,20C36,15.052 35.986,14.244 35.884,11.942C35.81,10.378 35.598,9.322 35.22,8.346C34.919,7.53 34.438,6.792 33.814,6.186C33.209,5.56 32.471,5.078 31.654,4.778C30.674,4.398 29.622,4.188 28.058,4.116C25.852,4.012 25.08,4 20,4M20,0C25.434,0 26.112,0.02 28.246,0.12C30.374,0.22 31.826,0.554 33.1,1.05C34.42,1.558 35.532,2.246 36.644,3.356C37.661,4.356 38.448,5.565 38.95,6.9C39.444,8.174 39.78,9.626 39.88,11.756C39.974,13.888 40,14.566 40,20C40,25.434 39.98,26.112 39.88,28.244C39.78,30.374 39.444,31.824 38.95,33.1C38.449,34.436 37.662,35.645 36.644,36.644C35.644,37.661 34.435,38.448 33.1,38.95C31.826,39.444 30.374,39.78 28.246,39.88C26.112,39.974 25.434,40 20,40C14.566,40 13.888,39.98 11.754,39.88C9.626,39.78 8.176,39.444 6.9,38.95C5.565,38.449 4.355,37.662 3.356,36.644C2.339,35.644 1.552,34.435 1.05,33.1C0.554,31.826 0.22,30.374 0.12,28.244C0.024,26.112 0,25.434 0,20C0,14.566 0.02,13.888 0.12,11.756C0.22,9.626 0.554,8.176 1.05,6.9C1.55,5.564 2.338,4.355 3.356,3.356C4.355,2.338 5.565,1.551 6.9,1.05C8.174,0.554 9.624,0.22 11.754,0.12C13.89,0.026 14.568,0 20.002,0Z" fill="#000000"/>
</svg>
