<svg width="64" height="62" viewBox="0 0 64 62" fill="none" xmlns="http://www.w3.org/2000/svg" xmlns:xlink="http://www.w3.org/1999/xlink">
<path d="M20.591,53.049C20.661,52.015 20.809,50.985 21.031,49.969C21.224,49.061 21.812,46.492 22.674,42.769L22.695,42.677L23.886,37.545C24.129,36.498 24.317,35.686 24.443,35.415C23.845,34.034 23.548,32.542 23.569,31.037C23.569,26.923 25.895,23.735 28.911,23.735C30.018,23.717 31.077,24.197 31.809,25.046C32.541,25.895 32.88,27.025 32.738,28.111C32.738,29.505 32.477,30.566 31.344,34.372C31.169,34.956 31,35.542 30.837,36.129C30.687,36.661 30.551,37.197 30.428,37.735C30.132,38.923 30.403,40.188 31.157,41.135C31.522,41.601 31.994,41.971 32.533,42.216C33.072,42.461 33.661,42.572 34.252,42.541C38.843,42.541 42.252,36.434 42.252,28.548C42.252,22.486 38.283,18.474 31.692,18.474C30.042,18.412 28.398,18.694 26.862,19.301C25.327,19.908 23.934,20.827 22.772,22C21.585,23.199 20.649,24.621 20.018,26.186C19.386,27.75 19.073,29.424 19.095,31.111C19.019,32.928 19.576,34.716 20.671,36.169C21.228,36.6 21.44,37.348 21.209,37.985C21.083,38.501 20.778,39.683 20.664,40.077C20.633,40.27 20.556,40.453 20.442,40.612C20.327,40.77 20.177,40.9 20.003,40.991C19.834,41.079 19.647,41.125 19.458,41.126C19.268,41.127 19.08,41.083 18.911,40.997C15.341,39.523 13.384,35.526 13.384,30.412C13.384,21.228 21.049,13.231 32.437,13.231C42.083,13.231 49.301,20.397 49.301,29.046C49.301,39.914 43.357,47.828 34.871,47.828C33.664,47.863 32.465,47.614 31.372,47.101C30.278,46.589 29.32,45.827 28.575,44.877L28.443,45.421L27.806,48.043L27.8,48.068C27.351,49.914 27.037,51.197 26.914,51.677C26.588,52.769 26.175,53.84 25.683,54.877C31.805,56.336 38.254,55.394 43.704,52.246C49.154,49.097 53.19,43.98 54.984,37.948C56.778,31.915 56.192,25.424 53.348,19.809C50.504,14.194 45.618,9.882 39.692,7.759C33.767,5.636 27.254,5.864 21.491,8.394C15.729,10.925 11.154,15.567 8.709,21.367C6.263,27.166 6.131,33.682 8.341,39.575C10.551,45.468 14.935,50.288 20.591,53.049ZM31.384,61.692C14.391,61.692 0.615,47.917 0.615,30.923C0.615,13.929 14.391,0.154 31.384,0.154C48.378,0.154 62.154,13.929 62.154,30.923C62.154,47.917 48.378,61.692 31.384,61.692Z" fill="#000000"/>
</svg>
