<svg width="40" height="40" viewBox="0 0 40 40" fill="none" xmlns="http://www.w3.org/2000/svg" xmlns:xlink="http://www.w3.org/1999/xlink">
<path d="M12.984,34.382C13.03,33.71 13.126,33.04 13.27,32.38C13.396,31.79 13.778,30.12 14.338,27.7L14.352,27.64L15.126,24.304C15.284,23.624 15.406,23.096 15.488,22.92C15.1,22.022 14.906,21.052 14.92,20.074C14.92,17.4 16.432,15.328 18.392,15.328C19.112,15.316 19.8,15.628 20.276,16.18C20.752,16.732 20.972,17.466 20.88,18.172C20.88,19.078 20.71,19.768 19.974,22.242C19.86,22.621 19.75,23.002 19.644,23.384C19.547,23.73 19.458,24.078 19.378,24.428C19.186,25.2 19.362,26.022 19.852,26.638C20.09,26.94 20.396,27.181 20.747,27.34C21.097,27.499 21.48,27.572 21.864,27.552C24.848,27.552 27.064,23.582 27.064,18.456C27.064,14.516 24.484,11.908 20.2,11.908C19.128,11.868 18.059,12.051 17.061,12.446C16.063,12.84 15.157,13.438 14.402,14.2C13.631,14.979 13.022,15.904 12.612,16.921C12.201,17.937 11.997,19.026 12.012,20.122C11.962,21.304 12.324,22.466 13.036,23.41C13.398,23.69 13.536,24.176 13.386,24.59C13.304,24.926 13.106,25.694 13.032,25.95C13.011,26.076 12.962,26.195 12.887,26.298C12.812,26.401 12.715,26.485 12.602,26.544C12.492,26.601 12.371,26.631 12.247,26.632C12.124,26.633 12.002,26.604 11.892,26.548C9.572,25.59 8.3,22.992 8.3,19.668C8.3,13.698 13.282,8.5 20.684,8.5C26.954,8.5 31.646,13.158 31.646,18.78C31.646,25.844 27.782,30.988 22.266,30.988C21.481,31.011 20.702,30.849 19.992,30.516C19.281,30.183 18.658,29.688 18.174,29.07L18.088,29.424L17.674,31.128L17.67,31.144C17.378,32.344 17.174,33.178 17.094,33.49C16.882,34.2 16.614,34.896 16.294,35.57C20.274,36.518 24.465,35.906 28.008,33.86C31.55,31.813 34.174,28.487 35.34,24.566C36.506,20.645 36.125,16.425 34.277,12.776C32.428,9.126 29.252,6.324 25.4,4.944C21.549,3.564 17.315,3.711 13.57,5.356C9.824,7.001 6.851,10.019 5.261,13.788C3.671,17.558 3.586,21.793 5.022,25.624C6.458,29.454 9.308,32.587 12.984,34.382ZM20,40C8.954,40 0,31.046 0,20C0,8.954 8.954,0 20,0C31.046,0 40,8.954 40,20C40,31.046 31.046,40 20,40Z" fill="#000000"/>
</svg>
