<svg width="62" height="62" viewBox="0 0 62 62" fill="none" xmlns="http://www.w3.org/2000/svg" xmlns:xlink="http://www.w3.org/1999/xlink">
<path d="M31.08,21.692C28.632,21.692 26.284,22.665 24.553,24.396C22.822,26.127 21.849,28.475 21.849,30.923C21.849,33.371 22.822,35.719 24.553,37.45C26.284,39.181 28.632,40.154 31.08,40.154C33.528,40.154 35.876,39.181 37.607,37.45C39.338,35.719 40.311,33.371 40.311,30.923C40.311,28.475 39.338,26.127 37.607,24.396C35.876,22.665 33.528,21.692 31.08,21.692ZM31.08,15.538C35.16,15.538 39.073,17.159 41.958,20.044C44.844,22.93 46.465,26.843 46.465,30.923C46.465,35.003 44.844,38.916 41.958,41.802C39.073,44.687 35.16,46.308 31.08,46.308C27,46.308 23.087,44.687 20.201,41.802C17.316,38.916 15.695,35.003 15.695,30.923C15.695,26.843 17.316,22.93 20.201,20.044C23.087,17.159 27,15.538 31.08,15.538ZM51.08,14.769C51.08,15.789 50.675,16.768 49.953,17.489C49.232,18.21 48.254,18.615 47.234,18.615C46.214,18.615 45.235,18.21 44.514,17.489C43.793,16.768 43.388,15.789 43.388,14.769C43.388,13.749 43.793,12.771 44.514,12.05C45.235,11.328 46.214,10.923 47.234,10.923C48.254,10.923 49.232,11.328 49.953,12.05C50.675,12.771 51.08,13.749 51.08,14.769ZM31.08,6.308C23.468,6.308 22.225,6.329 18.683,6.486C16.271,6.6 14.652,6.923 13.151,7.508C11.894,7.969 10.758,8.708 9.828,9.671C8.865,10.601 8.124,11.737 7.661,12.994C7.077,14.502 6.754,16.117 6.643,18.526C6.483,21.923 6.461,23.111 6.461,30.923C6.461,38.538 6.483,39.778 6.64,43.32C6.754,45.729 7.077,47.351 7.658,48.849C8.181,50.188 8.797,51.151 9.818,52.172C10.855,53.206 11.818,53.825 13.141,54.335C14.661,54.923 16.28,55.249 18.68,55.36C22.077,55.52 23.265,55.538 31.077,55.538C38.692,55.538 39.932,55.517 43.474,55.36C45.88,55.246 47.498,54.923 49.003,54.341C50.258,53.878 51.394,53.139 52.326,52.178C53.363,51.145 53.981,50.181 54.492,48.855C55.077,47.341 55.403,45.723 55.514,43.317C55.674,39.923 55.692,38.732 55.692,30.923C55.692,23.311 55.671,22.068 55.514,18.526C55.4,16.12 55.074,14.495 54.492,12.994C54.028,11.738 53.289,10.603 52.329,9.671C51.399,8.707 50.263,7.967 49.006,7.505C47.498,6.92 45.88,6.597 43.474,6.486C40.08,6.326 38.892,6.308 31.077,6.308M31.077,0.154C39.437,0.154 40.48,0.185 43.763,0.338C47.037,0.492 49.271,1.006 51.231,1.769C53.261,2.551 54.972,3.609 56.683,5.317C58.248,6.855 59.458,8.716 60.231,10.769C60.991,12.729 61.508,14.963 61.661,18.24C61.806,21.52 61.846,22.563 61.846,30.923C61.846,39.283 61.815,40.326 61.661,43.606C61.508,46.883 60.991,49.114 60.231,51.077C59.46,53.132 58.249,54.993 56.683,56.529C55.144,58.093 53.284,59.304 51.231,60.077C49.271,60.837 47.037,61.354 43.763,61.508C40.48,61.652 39.437,61.692 31.077,61.692C22.717,61.692 21.674,61.661 18.391,61.508C15.117,61.354 12.886,60.837 10.923,60.077C8.869,59.306 7.008,58.095 5.471,56.529C3.906,54.991 2.695,53.131 1.923,51.077C1.16,49.117 0.646,46.883 0.492,43.606C0.345,40.326 0.308,39.283 0.308,30.923C0.308,22.563 0.338,21.52 0.492,18.24C0.646,14.963 1.16,12.732 1.923,10.769C2.693,8.714 3.904,6.853 5.471,5.317C7.008,3.751 8.869,2.541 10.923,1.769C12.883,1.006 15.114,0.492 18.391,0.338C21.677,0.194 22.72,0.154 31.08,0.154Z" fill="#000000"/>
</svg>
