<svg width="64" height="54" viewBox="0 0 64 54" fill="none" xmlns="http://www.w3.org/2000/svg" xmlns:xlink="http://www.w3.org/1999/xlink">
<path d="M63.415,6.615C61.046,7.692 58.492,8.4 55.846,8.738C58.553,7.108 60.646,4.523 61.63,1.415C59.077,2.954 56.246,4.031 53.261,4.646C50.83,2 47.415,0.461 43.538,0.461C36.307,0.461 30.4,6.369 30.4,13.661C30.4,14.708 30.523,15.723 30.738,16.677C19.784,16.123 10.031,10.861 3.538,2.892C2.4,4.831 1.754,7.108 1.754,9.508C1.754,14.092 4.061,18.154 7.631,20.461C5.446,20.461 3.415,19.846 1.631,18.923L1.631,19.015C1.631,25.415 6.184,30.769 12.215,31.969C10.279,32.501 8.246,32.575 6.277,32.184C7.112,34.807 8.749,37.103 10.957,38.747C13.164,40.392 15.832,41.304 18.584,41.354C13.919,45.048 8.135,47.044 2.184,47.015C1.138,47.015 0.092,46.954 -0.954,46.831C4.892,50.584 11.846,52.769 19.292,52.769C43.538,52.769 56.861,32.646 56.861,15.2C56.861,14.615 56.861,14.061 56.83,13.477C59.415,11.631 61.63,9.292 63.415,6.615Z" fill="#000000"/>
</svg>
